<svg width="125" height="35" viewBox="0 0 125 35" fill="none" xmlns="http://www.w3.org/2000/svg">
<path d="M8.82 27C7.188 27 5.904 26.532 4.968 25.596C4.056 24.66 3.6 23.388 3.6 21.78V4.032H7.704V21.6C7.704 22.152 7.872 22.608 8.208 22.968C8.544 23.304 8.988 23.472 9.54 23.472H13.392V27H8.82ZM0.432 12.168V8.64H13.428V12.168H0.432ZM25.9751 27C23.9111 27 22.0991 26.616 20.5391 25.848C19.0031 25.056 17.8031 23.976 16.9391 22.608C16.0751 21.216 15.6431 19.62 15.6431 17.82C15.6431 15.924 16.0271 14.256 16.7951 12.816C17.5631 11.376 18.6191 10.248 19.9631 9.432C21.3071 8.616 22.8551 8.208 24.6071 8.208C26.5751 8.208 28.1951 8.628 29.4671 9.468C30.7391 10.308 31.6751 11.436 32.2751 12.852C32.8991 14.268 33.2111 15.852 33.2111 17.604C33.2111 17.844 33.1991 18.12 33.1751 18.432C33.1511 18.744 33.1151 18.984 33.0671 19.152H20.0351C20.1791 20.112 20.5271 20.916 21.0791 21.564C21.6311 22.188 22.3271 22.668 23.1671 23.004C24.0071 23.316 24.9431 23.472 25.9751 23.472H30.9071V27H25.9751ZM19.9991 16.344H29.0711C29.0471 15.888 28.9751 15.432 28.8551 14.976C28.7591 14.52 28.5911 14.088 28.3511 13.68C28.1351 13.272 27.8471 12.924 27.4871 12.636C27.1511 12.324 26.7431 12.084 26.2631 11.916C25.7831 11.724 25.2311 11.628 24.6071 11.628C23.8871 11.628 23.2511 11.772 22.6991 12.06C22.1471 12.324 21.6791 12.684 21.2951 13.14C20.9111 13.572 20.6111 14.076 20.3951 14.652C20.2031 15.204 20.0711 15.768 19.9991 16.344ZM45.9338 27C44.0378 27 42.3458 26.592 40.8578 25.776C39.3698 24.96 38.1938 23.868 37.3298 22.5C36.4658 21.108 36.0338 19.548 36.0338 17.82C36.0338 16.092 36.4658 14.544 37.3298 13.176C38.1938 11.784 39.3698 10.68 40.8578 9.864C42.3458 9.048 44.0378 8.64 45.9338 8.64H48.1658V12.168H45.8618C44.7578 12.168 43.7738 12.42 42.9098 12.924C42.0698 13.404 41.4098 14.076 40.9298 14.94C40.4498 15.804 40.2098 16.764 40.2098 17.82C40.2098 18.876 40.4498 19.836 40.9298 20.7C41.4098 21.564 42.0698 22.248 42.9098 22.752C43.7738 23.232 44.7578 23.472 45.8618 23.472H48.1658V27H45.9338ZM121.53 27.396C120.738 27.396 120.054 27.12 119.478 26.568C118.926 25.992 118.65 25.308 118.65 24.516C118.65 23.748 118.926 23.088 119.478 22.536C120.054 21.96 120.738 21.672 121.53 21.672C122.298 21.672 122.958 21.96 123.51 22.536C124.086 23.088 124.374 23.748 124.374 24.516C124.374 25.044 124.242 25.536 123.978 25.992C123.738 26.424 123.402 26.76 122.97 27C122.538 27.264 122.058 27.396 121.53 27.396Z" fill="black"/>
<path d="M61.1691 27.432C59.2971 27.432 57.6411 27.036 56.2011 26.244C54.7611 25.452 53.6331 24.324 52.8171 22.86C52.0251 21.372 51.6291 19.62 51.6291 17.604V0.719999H55.7691V11.412H55.8051C56.1891 10.764 56.6931 10.2 57.3171 9.72C57.9411 9.24 58.6371 8.868 59.4051 8.604C60.1731 8.34 60.9891 8.208 61.8531 8.208C63.6051 8.208 65.1411 8.604 66.4611 9.396C67.8051 10.164 68.8491 11.244 69.5931 12.636C70.3611 14.028 70.7451 15.66 70.7451 17.532C70.7451 18.996 70.5171 20.34 70.0611 21.564C69.6291 22.764 68.9931 23.808 68.1531 24.696C67.3371 25.584 66.3411 26.268 65.1651 26.748C63.9891 27.204 62.6571 27.432 61.1691 27.432ZM61.1691 23.904C62.2251 23.904 63.1611 23.652 63.9771 23.148C64.7931 22.62 65.4291 21.9 65.8851 20.988C66.3411 20.076 66.5691 19.02 66.5691 17.82C66.5691 16.644 66.3411 15.6 65.8851 14.688C65.4291 13.776 64.7931 13.056 63.9771 12.528C63.1851 12 62.2611 11.736 61.2051 11.736C60.1491 11.736 59.2131 12 58.3971 12.528C57.5811 13.032 56.9451 13.74 56.4891 14.652C56.0331 15.564 55.8051 16.62 55.8051 17.82C55.8051 19.02 56.0331 20.076 56.4891 20.988C56.9451 21.9 57.5811 22.62 58.3971 23.148C59.2131 23.652 60.1371 23.904 61.1691 23.904ZM83.4438 27.432C81.6678 27.432 80.1198 27.084 78.7998 26.388C77.4798 25.668 76.4598 24.684 75.7398 23.436C75.0198 22.188 74.6598 20.784 74.6598 19.224V8.64H78.7998V19.188C78.7998 20.124 79.0038 20.952 79.4118 21.672C79.8438 22.368 80.4078 22.92 81.1038 23.328C81.8238 23.712 82.6038 23.904 83.4438 23.904C84.2838 23.904 85.0518 23.712 85.7478 23.328C86.4678 22.92 87.0318 22.368 87.4398 21.672C87.8718 20.952 88.0878 20.124 88.0878 19.188V8.64H92.2278V19.224C92.2278 20.784 91.8558 22.188 91.1118 23.436C90.3918 24.684 89.3718 25.668 88.0518 26.388C86.7558 27.084 85.2198 27.432 83.4438 27.432ZM103.963 34.308V27.252C102.571 26.988 101.371 26.496 100.363 25.776C99.3549 25.032 98.5749 24.096 98.0229 22.968C97.4709 21.84 97.1949 20.592 97.1949 19.224V8.64H101.335V19.188C101.335 20.124 101.539 20.952 101.947 21.672C102.379 22.368 102.943 22.92 103.639 23.328C104.359 23.712 105.139 23.904 105.979 23.904C106.819 23.904 107.587 23.712 108.283 23.328C109.003 22.92 109.567 22.368 109.975 21.672C110.407 20.952 110.623 20.124 110.623 19.188V8.64H114.763V19.224C114.763 20.592 114.487 21.828 113.935 22.932C113.383 24.036 112.603 24.972 111.595 25.74C110.611 26.484 109.435 26.976 108.067 27.216V34.308H103.963Z" fill="#22A2FF"/>
</svg>
