<svg width="52" height="41" viewBox="0 0 52 41" fill="none" xmlns="http://www.w3.org/2000/svg">
<path d="M46.538 4.35258L46.9921 4.03837L46.4564 3.90447C46.4424 3.90097 46.4246 3.89567 46.4036 3.88945C46.3207 3.86487 46.1889 3.82579 46.0539 3.82579H5.94413C5.80918 3.82579 5.67739 3.86487 5.5945 3.88945C5.5735 3.89567 5.55563 3.90097 5.54165 3.90447L5.00599 4.03837L5.46002 4.35258L25.8568 18.468L25.999 18.5664L26.1413 18.468L46.538 4.35258ZM4.26331 7.34567L3.87096 7.07387V7.55117V35.0698C3.87096 36.2334 4.78052 37.1429 5.94413 37.1429H46.0539C47.2175 37.1429 48.1271 36.2334 48.1271 35.0698V7.55117V7.07387L47.7348 7.34567L25.999 22.4022L4.26331 7.34567ZM0.724609 5.89897C0.724609 3.03164 3.07681 0.679443 5.94413 0.679443H46.0539C48.9213 0.679443 51.2735 3.03164 51.2735 5.89897V35.0698C51.2735 37.9371 48.9213 40.2893 46.0539 40.2893H5.94413C3.07681 40.2893 0.724609 37.9371 0.724609 35.0698V5.89897Z" fill="#0E0E0E" stroke="#C4C4C4" stroke-width="0.5"/>
</svg>
