<svg width="50" height="51" viewBox="0 0 50 51" fill="none" xmlns="http://www.w3.org/2000/svg">
<path fill-rule="evenodd" clip-rule="evenodd" d="M32.4609 45.944C32.2491 45.8199 32.0422 45.6992 31.8391 45.5807C28.0974 43.398 25.6466 41.9683 17.7381 34.0467C9.38643 25.7088 7.39199 22.6202 4.95435 18.4374C2.76601 14.6979 3.43082 9.93338 6.49173 6.87247L7.89477 5.46942C10.2026 3.16164 13.9442 3.16165 16.252 5.46943L19.5401 8.75749C21.3751 10.5926 21.3751 13.5678 19.54 15.4029L18.5575 16.3854C18.5314 16.4115 18.5249 16.4515 18.5414 16.4846C18.8461 17.1078 19.414 18.0635 20.1204 19.1161C21.5608 21.249 23.6383 23.8944 25.7713 26.0135C27.8904 28.1465 30.3003 29.9886 32.1839 31.1935L32.2756 31.2516C33.5195 32.0353 35.1006 31.7394 36.1402 30.6998L36.2988 30.5412C37.6828 29.1572 39.9266 29.1565 41.3115 30.5396L44.0154 33.24C47.1021 36.3228 47.1007 41.3257 44.0121 44.4067C40.965 47.4676 36.2144 48.1324 32.4609 45.944ZM33.7963 28.6637C33.7977 28.6646 33.7992 28.6655 33.8006 28.6664L33.8401 28.6914C33.8767 28.6813 33.9453 28.652 34.0189 28.5785L34.1775 28.4199C36.7326 25.8648 40.8748 25.8635 43.4315 28.4169L46.1353 31.1173C50.395 35.3715 50.3939 42.2747 46.1338 46.5276C42.1391 50.5365 35.8998 51.4216 30.9499 48.5357L30.9444 48.5325C30.7353 48.41 30.5288 48.2896 30.3242 48.1703C28.5555 47.139 26.9203 46.1857 24.858 44.604C22.5802 42.8572 19.8207 40.3788 15.6168 36.168C7.12003 27.6852 4.95389 24.3946 2.36347 19.9498C-0.527439 15.0068 0.367322 8.75423 4.37041 4.75114L5.77345 3.3481C9.25281 -0.131256 14.894 -0.131247 18.3733 3.34811L21.6614 6.63617C24.4611 9.43593 24.6538 13.8556 22.2393 16.8782C22.355 17.0582 22.4784 17.2461 22.6089 17.4406C23.9653 19.4487 25.9206 21.933 27.8857 23.8853L27.8926 23.8922L27.8995 23.8991C29.8438 25.8562 32.0752 27.5622 33.7963 28.6637ZM21.2366 15.1669C21.2326 15.1588 21.2286 15.1507 21.2246 15.1426L18.5414 16.4846L21.2366 15.1669Z" fill="#0E0E0E"/>
</svg>
