<svg width="46" height="47" viewBox="0 0 46 47" fill="none" xmlns="http://www.w3.org/2000/svg">
<path d="M11.0031 38.4344V38.2149H10.7836H5.54804C2.79244 38.2149 0.531982 35.9544 0.531982 33.1988V5.27579C0.531982 2.52018 2.79244 0.259735 5.54804 0.259735H40.4518C43.2074 0.259735 45.4679 2.52018 45.4679 5.27579V33.1988C45.4679 35.9544 43.2074 38.2149 40.4518 38.2149H23.5317H23.4652L23.41 38.2517L11.0031 46.5185V38.4344ZM5.54804 35.1635H14.0545V40.4113V40.8217L14.3958 40.5939L22.5347 35.1635H40.4518C41.5547 35.1635 42.4165 34.3017 42.4165 33.1988V5.27579C42.4165 4.17289 41.5547 3.31111 40.4518 3.31111H5.54804C4.44515 3.31111 3.58335 4.17289 3.58335 5.27579V33.1988C3.58335 34.3017 4.44515 35.1635 5.54804 35.1635Z" fill="#0E0E0E" stroke="#C4C4C4" stroke-width="0.439002"/>
</svg>
